<svg xmlns="http://www.w3.org/2000/svg" width="208" height="120" viewBox="0 0 208 120">
    <defs>
        <linearGradient id="prefix__a" x1="50.008%" x2="50.008%" y1="100.003%" y2="-.107%">
            <stop offset="0%" stop-color="gray" stop-opacity=".25"/>
            <stop offset="54%" stop-color="gray" stop-opacity=".12"/>
            <stop offset="100%" stop-color="gray" stop-opacity=".1"/>
        </linearGradient>
    </defs>
    <g fill="none" fill-rule="evenodd">
        <g fill-rule="nonzero" opacity=".1" transform="translate(133.77)">
            <ellipse cx="19.247" cy="113.744" fill="#3F3D56" rx="3.997" ry="5.261"/>
            <path fill="#3F3D56" d="M22.41 91.237c.56-.978.85-2.088.842-3.216 0-2.912-1.79-5.26-3.997-5.26-2.208 0-3.996 2.354-3.996 5.26-.011 1.128.277 2.238.834 3.216-1.112 1.997-1.112 4.432 0 6.43-1.112 1.997-1.112 4.433 0 6.43-.557.979-.845 2.089-.834 3.216 0 2.912 1.79 5.261 3.996 5.261 2.205 0 3.997-2.355 3.997-5.26.01-1.128-.277-2.238-.835-3.217 1.113-1.997 1.113-4.433 0-6.43 1.113-1.998 1.113-4.433 0-6.43h-.007z"/>
            <ellipse cx="19.247" cy="81.592" fill="#3F3D56" rx="3.997" ry="5.261"/>
            <ellipse cx="19.247" cy="75.16" fill="#3F3D56" rx="3.997" ry="5.261"/>
            <path fill="#F8765E" d="M34.208 31.154c.545-.7 1.042-1.436 1.487-2.204L25.2 27.215l11.358.086c2.2-4.819 2.331-10.335.362-15.254l-15.239 7.946L35.737 9.609C32.147 3.377 25.399-.318 18.246.03 11.093.379 4.732 4.713 1.758 11.265c-2.974 6.551-2.064 14.224 2.359 19.889-.851 1.088-1.583 2.264-2.183 3.51l13.631 7.123-14.534-4.914c-2.077 6.162-.92 12.962 3.076 18.078-6.172 7.893-5.277 19.231 2.057 26.044 7.335 6.814 18.644 6.814 25.978 0 7.334-6.813 8.23-18.151 2.057-26.044 5.462-6.984 5.462-16.82 0-23.805l.009.008z"/>
            <path fill="#000" d="M.02 43.057c-.007 4.318 1.437 8.512 4.097 11.902-6.173 7.892-5.278 19.23 2.057 26.044 7.334 6.813 18.643 6.813 25.977 0 7.334-6.814 8.23-18.152 2.057-26.044C36.774 51.683.02 40.895.02 43.057z"/>
        </g>
        <g fill-rule="nonzero" opacity=".1" transform="translate(28.525 40.328)">
            <ellipse cx="11.769" cy="68.468" fill="#3F3D56" rx="2.441" ry="3.159"/>
            <path fill="#3F3D56" d="M13.71 54.953c.34-.588.517-1.254.51-1.932 0-1.744-1.09-3.159-2.442-3.159-1.353 0-2.44 1.415-2.44 3.16-.008.676.168 1.343.508 1.93-.678 1.2-.678 2.662 0 3.862-.678 1.2-.678 2.661 0 3.861-.34.587-.516 1.253-.509 1.93 0 1.747 1.09 3.161 2.44 3.161 1.352 0 2.443-1.414 2.443-3.161.007-.677-.17-1.343-.51-1.93.68-1.199.68-2.662 0-3.86.68-1.2.68-2.663 0-3.862z"/>
            <ellipse cx="11.769" cy="49.16" fill="#3F3D56" rx="2.441" ry="3.159"/>
            <ellipse cx="11.769" cy="45.299" fill="#3F3D56" rx="2.441" ry="3.159"/>
            <path fill="#F8765E" d="M2.633 18.872c-.333-.42-.637-.862-.908-1.323l6.416-1.041-6.939.052C-.14 13.668-.22 10.357.98 7.405l9.303 4.776-8.584-6.246C3.892 2.195 8.014-.021 12.382.189 16.75.399 20.634 3 22.45 6.933c1.817 3.932 1.262 8.538-1.438 11.939.52.652.967 1.358 1.333 2.105l-8.327 4.28 8.88-2.946c1.266 3.701.557 7.785-1.886 10.857 3.771 4.739 3.224 11.547-1.257 15.638-4.48 4.091-11.389 4.091-15.87 0-4.48-4.09-5.027-10.899-1.257-15.638-3.336-4.195-3.336-10.102 0-14.296h.004z"/>
            <path fill="#000" d="M23.516 26.02c.004 2.593-.878 5.112-2.503 7.148 3.771 4.739 3.224 11.547-1.257 15.638-4.48 4.091-11.389 4.091-15.87 0-4.48-4.09-5.027-10.899-1.257-15.638-1.567-1.959 20.887-8.446 20.887-7.148z"/>
        </g>
        <g fill-rule="nonzero" opacity=".1" transform="translate(79.672 18.689)">
            <ellipse cx="15.612" cy="92.023" fill="#3F3D56" rx="3.273" ry="4.251"/>
            <path fill="#3F3D56" d="M18.203 73.835c.456-.791.692-1.688.682-2.6 0-2.346-1.455-4.25-3.275-4.25-1.819 0-3.275 1.904-3.275 4.25-.01.912.227 1.81.685 2.6-.912 1.614-.912 3.583 0 5.197-.912 1.613-.912 3.581 0 5.195-.458.79-.694 1.688-.685 2.6 0 2.346 1.467 4.25 3.275 4.25 1.809 0 3.275-1.904 3.275-4.25.01-.912-.226-1.81-.682-2.6.91-1.614.91-3.581 0-5.195.91-1.615.91-3.582 0-5.197z"/>
            <ellipse cx="15.612" cy="66.04" fill="#3F3D56" rx="3.273" ry="4.251"/>
            <ellipse cx="15.612" cy="60.843" fill="#3F3D56" rx="3.273" ry="4.251"/>
            <path fill="#F8765E" d="M3.366 25.283c-.448-.565-.855-1.16-1.22-1.78l8.601-1.401-9.3.068c-1.804-3.893-1.913-8.351-.3-12.327l12.48 6.423L2.116 7.872C5.047 2.818 10.582-.186 16.453.092 22.324.367 27.546 3.88 29.98 9.187c2.435 5.307 1.674 11.52-1.972 16.095.696.879 1.295 1.83 1.786 2.837l-11.163 5.755 11.904-3.971c1.699 4.98.748 10.475-2.527 14.608 5.055 6.378 4.321 15.54-1.686 21.045-6.007 5.505-15.27 5.505-21.278 0-6.007-5.505-6.74-14.667-1.685-21.045-4.473-5.644-4.473-13.592 0-19.237l.007.008z"/>
            <path fill="#000" d="M31.363 34.902c.005 3.49-1.177 6.878-3.355 9.618 5.055 6.377 4.321 15.539-1.686 21.044-6.007 5.505-15.27 5.505-21.278 0C-.963 60.06-1.696 50.897 3.36 44.52c-2.102-2.647 28.004-11.365 28.004-9.618z"/>
        </g>
        <path fill="#3F3D56" fill-rule="nonzero" d="M207.541 115.077c0 1.228-9.09 2.351-24.118 3.219-2.733.155-5.661.304-8.767.443-2.684.12-5.496.232-8.438.338-2.85.1-5.81.193-8.878.279-9.69.274-20.404.47-31.785.569-2.762.025-5.56.044-8.396.057-2.954.013-5.942.019-8.963.018-54.867 0-99.344-2.202-99.344-4.918 0-2.717 44.477-4.918 99.344-4.918 23.622 0 45.314.41 62.364 1.089l1.864.075h.011c21.477.9 35.106 2.253 35.106 3.749z"/>
        <path fill="#000" fill-rule="nonzero" d="M207.541 115.077c0 1.228-9.09 2.351-24.118 3.219-2.733.155-5.661.304-8.767.443-2.684.12-5.496.232-8.438.338-2.85.1-5.81.193-8.878.279-9.69.274-20.404.47-31.785.569-2.762.025-5.56.044-8.396.057-2.954.013-5.942.019-8.963.018-54.867 0-99.344-2.202-99.344-4.918 0-2.717 44.477-4.918 99.344-4.918 23.622 0 45.314.41 62.364 1.089l1.864.075h.011c21.477.9 35.106 2.253 35.106 3.749z" opacity=".15"/>
        <path fill="#3F3D56" fill-rule="nonzero" d="M198.689 114.596c0 1.105-9.09 2.117-24.118 2.887-2.731.14-5.662.273-8.766.398-2.685.108-5.497.21-8.438.304-2.85.09-5.81.174-8.878.252-9.692.246-20.405.424-31.786.512-2.76.022-5.559.039-8.397.05-2.954.012-5.94.017-8.96.017-54.868 0-99.346-1.98-99.346-4.426s44.478-4.426 99.345-4.426c23.62 0 45.313.368 62.362.98l1.865.067h.012c21.485.822 35.105 2.032 35.105 3.385zM26.132 75.738L23.607 67.583 84.08 66.885 86.557 74.959z"/>
        <path fill="#000" fill-rule="nonzero" d="M26.132 75.738L23.607 67.583 84.08 66.885 86.557 74.959z" opacity=".15"/>
        <path fill="#9BDBE7" fill-rule="nonzero" d="M22.197 75.738L19.672 67.583 80.145 66.885 82.623 74.959z"/>
        <path fill="#3F3D56" fill-rule="nonzero" d="M124.165 64.885c-6.164 0-11.023-2.448-14.575-7.345-3.552-4.896-5.328-10.828-5.328-17.795 0-7.014 1.718-12.934 5.153-17.76 3.435-4.825 8.281-7.236 14.537-7.23 6.634 0 11.633 2.541 14.996 7.626 3.363 5.085 5.045 10.97 5.046 17.655 0 6.637-1.74 12.438-5.221 17.405-3.481 4.966-8.35 7.448-14.608 7.444zm.181-5.508c4.056 0 7.087-1.769 9.093-5.306 2.007-3.537 3.01-7.996 3.01-13.377 0-5.99-1.027-10.894-3.08-14.714-2.054-3.819-5.204-5.73-9.45-5.73-8.07 0-12.105 6.414-12.105 19.242 0 13.258 4.176 19.886 12.528 19.885h.004zm2.03 52.749h-8.915l58.372-96.39h8.748l-58.204 96.39zm51.64.989c-6.256 0-11.135-2.47-14.634-7.412-3.499-4.941-5.255-10.874-5.27-17.798 0-6.967 1.706-12.863 5.117-17.689 3.41-4.825 8.269-7.235 14.573-7.23 6.587 0 11.551 2.542 14.891 7.626 3.34 5.085 5.01 10.97 5.012 17.653 0 6.594-1.73 12.385-5.187 17.373-3.458 4.988-8.293 7.48-14.505 7.477h.004zm.106-5.65c4.036 0 7.05-1.738 9.044-5.215 1.994-3.477 2.99-7.918 2.99-13.323 0-5.785-1.008-10.636-3.026-14.555-2.017-3.918-5.16-5.88-9.43-5.886-8.116 0-12.175 6.414-12.175 19.242-.002 13.16 4.195 19.739 12.593 19.737h.004z"/>
        <path fill="#3F3D56" fill-rule="nonzero" d="M124.165 64.885c-6.164 0-11.023-2.448-14.575-7.345-3.552-4.896-5.328-10.828-5.328-17.795 0-7.014 1.718-12.934 5.153-17.76 3.435-4.825 8.281-7.236 14.537-7.23 6.634 0 11.633 2.541 14.996 7.626 3.363 5.085 5.045 10.97 5.046 17.655 0 6.637-1.74 12.438-5.221 17.405-3.481 4.966-8.35 7.448-14.608 7.444zm.181-5.508c4.056 0 7.087-1.769 9.093-5.306 2.007-3.537 3.01-7.996 3.01-13.377 0-5.99-1.027-10.894-3.08-14.714-2.054-3.819-5.204-5.73-9.45-5.73-8.07 0-12.105 6.414-12.105 19.242 0 13.258 4.176 19.886 12.528 19.885h.004zm2.03 52.749h-8.915l58.372-96.39h8.748l-58.204 96.39zm51.64.989c-6.256 0-11.135-2.47-14.634-7.412-3.499-4.941-5.255-10.874-5.27-17.798 0-6.967 1.706-12.863 5.117-17.689 3.41-4.825 8.269-7.235 14.573-7.23 6.587 0 11.551 2.542 14.891 7.626 3.34 5.085 5.01 10.97 5.012 17.653 0 6.594-1.73 12.385-5.187 17.373-3.458 4.988-8.293 7.48-14.505 7.477h.004zm.106-5.65c4.036 0 7.05-1.738 9.044-5.215 1.994-3.477 2.99-7.918 2.99-13.323 0-5.785-1.008-10.636-3.026-14.555-2.017-3.918-5.16-5.88-9.43-5.886-8.116 0-12.175 6.414-12.175 19.242-.002 13.16 4.195 19.739 12.593 19.737h.004z"/>
        <path fill="#000" fill-rule="nonzero" d="M124.165 64.885c-6.164 0-11.023-2.448-14.575-7.345-3.552-4.896-5.328-10.828-5.328-17.795 0-7.014 1.718-12.934 5.153-17.76 3.435-4.825 8.281-7.236 14.537-7.23 6.634 0 11.633 2.541 14.996 7.626 3.363 5.085 5.045 10.97 5.046 17.655 0 6.637-1.74 12.438-5.221 17.405-3.481 4.966-8.35 7.448-14.608 7.444zm.181-5.508c4.056 0 7.087-1.769 9.093-5.306 2.007-3.537 3.01-7.996 3.01-13.377 0-5.99-1.027-10.894-3.08-14.714-2.054-3.819-5.204-5.73-9.45-5.73-8.07 0-12.105 6.414-12.105 19.242 0 13.258 4.176 19.886 12.528 19.885h.004zm2.03 52.749h-8.915l58.372-96.39h8.748l-58.204 96.39zm51.64.989c-6.256 0-11.135-2.47-14.634-7.412-3.499-4.941-5.255-10.874-5.27-17.798 0-6.967 1.706-12.863 5.117-17.689 3.41-4.825 8.269-7.235 14.573-7.23 6.587 0 11.551 2.542 14.891 7.626 3.34 5.085 5.01 10.97 5.012 17.653 0 6.594-1.73 12.385-5.187 17.373-3.458 4.988-8.293 7.48-14.505 7.477h.004zm.106-5.65c4.036 0 7.05-1.738 9.044-5.215 1.994-3.477 2.99-7.918 2.99-13.323 0-5.785-1.008-10.636-3.026-14.555-2.017-3.918-5.16-5.88-9.43-5.886-8.116 0-12.175 6.414-12.175 19.242-.002 13.16 4.195 19.739 12.593 19.737h.004z" opacity=".15"/>
        <path fill="#9BDBE7" fill-rule="nonzero" d="M118.264 64.885c-6.165 0-11.023-2.448-14.575-7.345-3.552-4.896-5.328-10.828-5.328-17.795 0-7.014 1.717-12.934 5.152-17.76 3.436-4.825 8.281-7.236 14.537-7.23 6.635 0 11.633 2.541 14.996 7.626 3.363 5.085 5.045 10.97 5.047 17.655 0 6.637-1.74 12.438-5.222 17.405-3.48 4.966-8.35 7.448-14.607 7.444zm.18-5.508c4.056 0 7.087-1.769 9.094-5.306 2.006-3.537 3.01-7.996 3.01-13.377 0-5.99-1.027-10.894-3.08-14.714-2.054-3.819-5.204-5.73-9.45-5.73-8.07 0-12.105 6.414-12.105 19.242 0 13.258 4.176 19.886 12.528 19.885h.003zm2.031 52.749h-8.916l58.372-96.39h8.748l-58.204 96.39zm51.64.989c-6.257 0-11.135-2.47-14.634-7.412-3.5-4.941-5.256-10.874-5.27-17.798 0-6.967 1.705-12.863 5.116-17.689 3.411-4.825 8.269-7.235 14.573-7.23 6.588 0 11.551 2.542 14.891 7.626 3.34 5.085 5.011 10.97 5.012 17.653 0 6.594-1.729 12.385-5.187 17.373-3.458 4.988-8.293 7.48-14.504 7.477h.003zm.105-5.65c4.036 0 7.051-1.738 9.045-5.215 1.993-3.477 2.99-7.918 2.99-13.323 0-5.785-1.009-10.636-3.027-14.555-2.017-3.918-5.161-5.88-9.433-5.886-8.117 0-12.175 6.414-12.175 19.242 0 13.16 4.199 19.739 12.596 19.737h.004z"/>
        <path stroke="#3F3D56" stroke-width="4" d="M137.97 114.098c.747-1.384-.101-3.081-1.076-4.317-.976-1.236-2.165-2.52-2.14-4.095.037-2.26 2.437-3.596 4.351-4.796 1.424-.89 2.737-1.945 3.912-3.143.492-.462.899-1.007 1.202-1.61.397-.884.384-1.89.362-2.858-.083-3.23-.243-6.453-.478-9.672"/>
        <path fill="#F8765E" fill-rule="nonzero" d="M147.537 82.954c-.054-1.172-.701-2.235-1.718-2.82l-.77 1.525.022-1.847c-.368-.108-.75-.154-1.134-.136-1.899.089-3.366 1.7-3.277 3.6.089 1.899 1.7 3.366 3.6 3.278 1.898-.09 3.366-1.7 3.277-3.6zM142.237 107.313c-.744 1.447-2.4 2.175-3.969 1.744-1.568-.43-2.621-1.9-2.524-3.525.097-1.625 1.319-2.96 2.928-3.2 1.609-.239 3.165.682 3.732 2.208l-2.151 1.75 2.37-.552c-.001.548-.133 1.088-.386 1.575zM140.333 100.324c-.914.043-1.807-.278-2.484-.893-.677-.614-1.08-1.47-1.123-2.382-.027-.539.075-1.076.297-1.568.418-.93 1.226-1.629 2.21-1.907l-.02 1.414.782-1.542c1.903-.088 3.519 1.378 3.608 3.276.089 1.898-1.382 3.508-3.286 3.597l.016.005zM149.208 95.402c-1.231.083-2.41-.513-3.083-1.557-.672-1.043-.734-2.373-.16-3.476.572-1.103 1.691-1.806 2.924-1.84.637-.032 1.27.12 1.824.436l-.602 1.665 1.24-1.2c.665.612 1.062 1.466 1.104 2.374.016.318-.014.637-.088.947-.348 1.497-1.638 2.58-3.16 2.651z"/>
        <path fill="#000" fill-rule="nonzero" d="M147.146 83.916c-.804.086-1.584.33-2.391.378-.807.049-1.693-.14-2.203-.75-.275-.328-.411-.744-.644-1.102-.22-.334-.52-.61-.877-.803-.61 1.173-.468 2.582.364 3.617.832 1.035 2.204 1.51 3.52 1.216 1.317-.294 2.34-1.301 2.626-2.585-.132.007-.263.015-.395.03zM149.222 95.406c-1.222.055-2.383-.526-3.062-1.532-.679-1.005-.775-2.289-.254-3.382.277.185.514.42.7.694.25.37.4.798.692 1.138.538.632 1.47.837 2.311.8.84-.037 1.653-.274 2.492-.354.116-.01.234-.017.358-.021-.356 1.502-1.678 2.587-3.237 2.657zM140.407 100.324c-.933.043-1.845-.282-2.535-.906-.69-.623-1.103-1.493-1.146-2.417-.028-.547.076-1.092.303-1.591.29.192.543.435.744.717.273.382.445.823.765 1.177.593.654 1.592.886 2.49.864.9-.021 1.712-.23 2.579-.296-.44 1.404-1.72 2.384-3.2 2.452zM140.656 107.207c-.754 1.714-2.538 2.443-4.056 1.658-1.517-.786-2.236-2.81-1.633-4.603.257.196.488.434.685.707.296.419.492.894.835 1.283.641.724 1.668 1.022 2.585 1.05.529.005 1.058-.027 1.584-.095z" opacity=".1"/>
        <path stroke="#3F3D56" stroke-width="4" d="M192.069 114.098c.747-1.384-.102-3.081-1.077-4.317-.975-1.236-2.165-2.52-2.14-4.095.037-2.26 2.437-3.596 4.351-4.796 1.424-.89 2.737-1.945 3.912-3.143.492-.462.9-1.007 1.202-1.61.397-.884.384-1.89.363-2.858-.084-3.23-.243-6.453-.479-9.672"/>
        <path fill="#F8765E" fill-rule="nonzero" d="M202.62 82.954c-.055-1.172-.703-2.235-1.719-2.82l-.77 1.525.022-1.847c-.368-.108-.751-.154-1.134-.136-1.899.089-3.366 1.7-3.277 3.6.088 1.899 1.7 3.366 3.6 3.278 1.898-.09 3.366-1.7 3.277-3.6zM196.336 107.313c-.745 1.447-2.4 2.175-3.97 1.744-1.568-.43-2.621-1.9-2.524-3.525.098-1.625 1.319-2.96 2.928-3.2 1.609-.239 3.166.682 3.732 2.208l-2.151 1.75 2.37-.552c0 .548-.133 1.088-.385 1.575zM194.427 100.324c-.913.043-1.805-.278-2.481-.893-.676-.614-1.08-1.47-1.122-2.382-.027-.539.075-1.076.297-1.568.417-.93 1.225-1.629 2.207-1.907l-.02 1.414.781-1.542h.009c1.23-.057 2.397.545 3.061 1.58.665 1.034.727 2.343.162 3.435s-1.671 1.8-2.9 1.858l.006.005zM203.306 95.402c-1.23.083-2.41-.513-3.082-1.557-.673-1.043-.735-2.373-.161-3.476.573-1.103 1.692-1.806 2.925-1.84.636-.032 1.269.12 1.824.436l-.603 1.665 1.24-1.2c.665.612 1.062 1.466 1.104 2.374.016.318-.014.637-.087.947-.348 1.497-1.638 2.58-3.16 2.651z"/>
        <path fill="#000" fill-rule="nonzero" d="M202.228 83.916c-.804.086-1.584.33-2.391.378-.807.049-1.693-.14-2.203-.75-.275-.328-.411-.744-.644-1.102-.22-.334-.52-.61-.877-.803-.61 1.173-.468 2.582.364 3.617.832 1.035 2.204 1.51 3.52 1.216 1.317-.294 2.34-1.301 2.626-2.585-.132.007-.263.015-.395.03zM203.32 94.423c-1.221.055-2.383-.527-3.062-1.532-.678-1.006-.774-2.29-.253-3.383.276.185.514.42.7.694.25.37.4.799.692 1.138.537.633 1.47.838 2.31.8.84-.036 1.654-.274 2.492-.353.117-.011.235-.018.358-.022-.355 1.502-1.678 2.587-3.237 2.658zM194.505 100.324c-.933.043-1.844-.282-2.535-.906-.69-.623-1.102-1.493-1.146-2.417-.027-.547.077-1.092.304-1.591.29.192.542.435.743.717.273.382.445.823.765 1.177.594.654 1.592.886 2.491.864.872-.018 1.711-.23 2.578-.296-.44 1.404-1.72 2.384-3.2 2.452zM196.721 107.207c-.754 1.714-2.537 2.443-4.055 1.658-1.518-.786-2.236-2.81-1.633-4.603.256.196.487.434.684.707.297.419.492.894.836 1.283.64.724 1.667 1.022 2.584 1.05.53.005 1.058-.027 1.584-.095z" opacity=".1"/>
        <path stroke="#3F3D56" stroke-width="4" d="M20.39 111.148c-.746-1.385.102-3.082 1.077-4.318.975-1.236 2.165-2.52 2.14-4.095-.037-2.26-2.437-3.596-4.351-4.796-1.424-.89-2.737-1.944-3.912-3.143-.492-.462-.9-1.007-1.202-1.61-.397-.884-.384-1.89-.363-2.858.084-3.229.243-6.453.479-9.672"/>
        <path fill="#F8765E" fill-rule="nonzero" d="M9.84 80.987c.054-1.172.702-2.235 1.718-2.82l.77 1.525-.022-1.847c.368-.108.751-.154 1.134-.137 1.899.09 3.366 1.701 3.277 3.6-.088 1.9-1.7 3.367-3.6 3.278-1.898-.089-3.366-1.7-3.277-3.6zM16.123 104.362c.745 1.447 2.4 2.175 3.97 1.745 1.568-.43 2.621-1.902 2.524-3.526-.098-1.625-1.319-2.96-2.928-3.199-1.609-.24-3.166.68-3.732 2.207l2.151 1.75-2.37-.552c0 .548.133 1.088.385 1.575zM18.027 97.373c.914.043 1.808-.278 2.485-.892.676-.615 1.08-1.472 1.123-2.383.027-.539-.075-1.076-.298-1.568-.417-.93-1.226-1.628-2.209-1.907l.02 1.414-.782-1.541c-1.904-.09-3.519 1.377-3.608 3.275-.09 1.898 1.382 3.508 3.285 3.597l-.016.005zM9.153 92.451c1.23.083 2.41-.512 3.082-1.556.673-1.044.735-2.374.161-3.477-.573-1.103-1.692-1.807-2.925-1.84-.633-.03-1.262.121-1.815.436l.602 1.665-1.248-1.195c-.664.611-1.06 1.463-1.104 2.369-.016.318.014.637.087.947.348 1.498 1.638 2.58 3.16 2.651z"/>
        <path fill="#000" fill-rule="nonzero" d="M10.232 81.949c.803.085 1.583.329 2.39.378.807.048 1.693-.14 2.203-.75.275-.328.411-.744.644-1.102.22-.334.52-.61.877-.803.61 1.172.468 2.582-.364 3.617-.832 1.035-2.204 1.509-3.52 1.216-1.317-.294-2.34-1.301-2.626-2.586.132.007.263.016.396.03zM9.139 91.472c1.221.055 2.383-.526 3.062-1.532.678-1.006.774-2.29.253-3.383-.276.185-.514.42-.7.694-.25.37-.4.799-.692 1.139-.537.632-1.47.837-2.31.8-.84-.037-1.654-.275-2.492-.354-.117-.01-.235-.018-.358-.021.356 1.501 1.678 2.587 3.237 2.657zM17.954 98.357c.933.043 1.844-.283 2.535-.906.69-.623 1.102-1.493 1.146-2.418.027-.546-.077-1.091-.304-1.59-.29.191-.542.435-.743.717-.273.382-.445.823-.765 1.177-.594.654-1.592.886-2.491.864-.872-.018-1.711-.23-2.578-.296.44 1.404 1.72 2.384 3.2 2.452zM17.705 104.257c.754 1.714 2.538 2.443 4.055 1.657 1.518-.786 2.236-2.81 1.634-4.603-.257.196-.488.434-.685.707-.297.42-.492.894-.835 1.283-.642.724-1.668 1.022-2.585 1.05-.53.005-1.058-.026-1.584-.094z" opacity=".1"/>
        <path fill="url(#prefix__a)" fill-rule="nonzero" d="M121.967 94.78c.007-.909-.408-1.768-1.118-2.316-.043-1.697-1.227-3.083-2.748-3.298-.24-1.173-1.072-2.127-2.186-2.501-.133-.043-.269-.076-.407-.098h-.04l-.07-.01h-.373c-1.552 0-2.844 1.214-3.11 2.815-1.004-.237-1.925.07-2.09.72-.042.172-.032.353.028.52.17.503.724.984 1.474 1.223l.098.03c.049.014.098.025.147.036h.032c-.573 1.25-.087 2.741 1.106 3.389-.023.012-.045.027-.066.042-.092.087-.166.193-.217.311-.181.326-.322.673-.42 1.034-.072.31-.084.633-.18.939-.165.555-.588 1.041-.637 1.632-.022.262.02.571-.163.751-.045.04-.094.077-.145.11-.128.089-.236.205-.318.34-.053.111-.125.213-.212.3-.164.127-.436.114-.517.31-.082.196.128.428.08.642-.04.174-.227.254-.362.37-.152.169-.258.375-.308.598-.547.108-1.113-.04-1.543-.401.073.19.126.388.159.59-.215-.235-.57-.304-.832-.426-.339-.158-.64-.388-.887-.673l.474-.067-2.098-3.257-.62-.13.556 1.09c-.092.046-.158.132-.18.234-.03.12-.038.246-.022.37.03.292.077.582.143.868l.16.766c.014.072.032.143.053.213-.21-.008-.42.016-.622.072-.416-.157-.85-.262-1.29-.313-.097-.017-.197-.012-.291.015-.108.05-.201.128-.272.226-.362.428-.683.89-.959 1.38-1.127 2.006-2.632 3.757-4.041 5.57-.974.405-1.954.79-2.937 1.171l-2.111.824c-.422.164-.86.333-1.308.303-.203-.013-.449-.044-.563.132-.055.087-.098.181-.128.28-.074 0-.148.02-.217.023h-.013c-.134-.34-.25-.705-.506-.953-.106.017-.195.086-.24.185-.05.096-.08.202-.139.29-.114.17-.31.254-.452.399-.141.144-.23.37-.382.51-.212.158-.462.257-.723.287-.392.094-.77.241-1.124.437-.13.082-.27.148-.416.196-.16.031-.324.037-.487.017l-1.118-.084c-.1-.013-.2-.009-.298.013-.237.089-.386.33-.362.587.028.25.155.478.353.629.194.146.409.26.637.339.971.385 1.973.685 2.994.897v.231c.708.365 1.489.555 2.281.556.059.004.117-.007.17-.032.073-.056.124-.138.143-.23.237-.725.387-1.478.447-2.24.14-.01.277-.045.403-.106.386-.107.768.163 1.164.207.488.054.942-.236 1.404-.416.067-.026.134-.048.2-.07-.131.174-.286.328-.46.457-.193.14-.408.244-.596.39-.156.146-.324.28-.501.398-.125.06-.254.11-.386.152-.19.071-.373.165-.542.28-.152.09-.281.218-.377.37-.097.143-.115.329-.047.49.07.16.214.273.384.298.151.027.305.032.458.013.604-.047 1.206-.104 1.809-.16.255-.017.508-.054.758-.11.132-.034.262-.078.394-.113.226-.061.457-.097.69-.106.067-.005.135.002.2.02.141.047.241.186.384.223.093.009.186-.005.273-.04.441-.097.891-.146 1.343-.145.197-.012.428-.05.52-.237.113-.232-.075-.49-.15-.74-.037-.16-.058-.322-.061-.485-.035-.404-.148-.796-.333-1.153-.098-.167-.181-.343-.248-.526.865-.336 1.692-.765 2.468-1.28.445-.283.904-.589 1.407-.692.587-.12 1.19.039 1.768.209 1.375.407 2.727.89 4.05 1.445.634.265 1.267.546 1.915.74.19.262.418.49.678.677.434.287.965.37 1.475.411.689.065 1.381.091 2.073.08.528-.01 1.073-.046 1.545-.293.115-.06.224-.133.324-.218.362.067.733-.131 1.017-.385.376-.327.647-.762.778-1.249.166-.668.038-1.447.44-1.993.106-.146.245-.264.35-.412.13-.199.193-.434.181-.672l.018-.028c.091-.215.152-.441.181-.673.048-.182.108-.36.181-.532.204-.516.382-1.043.532-1.578.105-.355.187-.717.246-1.082.043-.293.069-.587.092-.881.03-.46.117-.916.26-1.353.358-1.044.56-2.137.6-3.242v-.065c1.088-.122 1.907-1.07 1.89-2.19 0-.326-.066-.648-.195-.946.25-.448.38-.956.376-1.471zm-10.23 12.715c.03.113.066.226.102.339-.166-.169-.33-.343-.499-.51.067.021.134.043.199.067.07.029.136.063.2.104h-.003zm-.811-.555c-.988-.877-2.131-1.558-3.143-2.406.543.28 1.086.604 1.628.915.632.37 1.272.724 1.918 1.062-.106.164-.24.307-.398.422l-.005.007zm.421-2.21l.047-.05v.347c-.088-.03-.18-.06-.266-.093.078-.065.152-.136.221-.21l-.002.007zm-8.696 2.377c.406-.471.76-.987 1.054-1.538.391.701 1.028 1.206 1.57 1.793-.871-.126-1.745-.224-2.623-.263l-.001.008z"/>
        <path fill="#2F2E41" fill-rule="nonzero" d="M104.262 97.377L104.709 97.524 106.23 101.165 105.558 101.311z"/>
        <path fill="#FBBEBE" fill-rule="nonzero" d="M89.508 111.175c.123.327.275.646.453.956.515-.086 1.02-.203 1.514-.347-.095-.12-.2-.235-.314-.344-.121-.108-.266-.198-.428-.264-.157-.055-.352-.014-.52-.007-.234.008-.47.01-.705.006z"/>
        <path fill="#2F2E41" fill-rule="nonzero" d="M90.385 111.813c-.339-.103-.547-.433-.685-.75-.138-.319-.25-.665-.512-.9-.1.016-.187.08-.23.17-.05.083-.08.18-.138.26-.109.151-.3.225-.439.355-.138.13-.224.326-.372.456-.206.143-.447.232-.699.26-.38.082-.749.214-1.094.39-.128.07-.264.127-.405.168-.156.028-.316.034-.474.015l-1.088-.076c-.097-.011-.195-.007-.29.014-.229.076-.373.293-.35.525.03.226.156.431.35.563.189.13.397.233.618.303.949.344 1.924.612 2.918.803v.207c.69.33 1.45.502 2.221.505.06.005.12-.005.175-.029.07-.05.12-.123.14-.205.26-.735.413-1.502.452-2.279.02-.196.005-.394-.045-.585-.06-.189.143-.11-.046-.184"/>
        <path fill="#2F2E41" fill-rule="nonzero" d="M112.003 107.059c-3.39.188-6.737-.723-10.132-.82-.421-.024-.844 0-1.259.073-.432.106-.85.255-1.247.444-1.82.776-3.702 1.418-5.583 2.06l-2.158.737c-.433.147-.88.296-1.34.271-.206-.012-.457-.04-.574.118-.35.476-.184 1.177.047 1.712.076.168.202.362.404.382.143-.009.283-.041.413-.096.393-.096.785.146 1.19.185.5.049.964-.212 1.436-.372.782-.264 1.637-.255 2.46-.381 1.38-.21 2.657-.798 3.853-1.467.455-.254.918-.527 1.439-.62.6-.107 1.219.035 1.808.188 1.404.364 2.787.796 4.142 1.293.705.28 1.428.522 2.165.723 1.607.388 3.306.297 4.852-.259.55-.196 1.13-.543 1.162-1.08.018-.306-.24-.575-.413-.84-.112-.169-.222-.337-.343-.497-.584-.78-1.292-1.811-2.322-1.754z"/>
        <path fill="#000" fill-rule="nonzero" d="M112.003 107.059c-3.39.188-6.737-.723-10.132-.82-.421-.024-.844 0-1.259.073-.432.106-.85.255-1.247.444-1.82.776-3.702 1.418-5.583 2.06l-2.158.737c-.433.147-.88.296-1.34.271-.206-.012-.457-.04-.574.118-.35.476-.184 1.177.047 1.712.076.168.202.362.404.382.143-.009.283-.041.413-.096.393-.096.785.146 1.19.185.5.049.964-.212 1.436-.372.782-.264 1.637-.255 2.46-.381 1.38-.21 2.657-.798 3.853-1.467.455-.254.918-.527 1.439-.62.6-.107 1.219.035 1.808.188 1.404.364 2.787.796 4.142 1.293.705.28 1.428.522 2.165.723 1.607.388 3.306.297 4.852-.259.55-.196 1.13-.543 1.162-1.08.018-.306-.24-.575-.413-.84-.112-.169-.222-.337-.343-.497-.584-.78-1.292-1.811-2.322-1.754z" opacity=".1"/>
        <path fill="#FBBEBE" fill-rule="nonzero" d="M96.393 111.616c.401.186.805.357 1.211.515.229-.513.656-.868.753-1.453.005-.026.005-.053 0-.078-.011-.025-.027-.045-.046-.057-.292-.22-.616-.349-.95-.378-.262-.023-.382.352-.5.615-.042.106-.36.886-.468.836z"/>
        <path fill="#2F2E41" fill-rule="nonzero" d="M96.325 110.9c-.296-.048-.558-.217-.722-.465-.07-.119-.142-.28-.282-.27-.14.008-.187.158-.216.283-.094.468-.23.927-.406 1.371-.177.446-.478.834-.868 1.121-.182.124-.384.217-.562.348-.149.13-.308.248-.476.354-.118.053-.24.098-.365.133-.184.063-.359.147-.522.25-.143.082-.265.196-.355.333-.088.142-.1.317-.03.468.073.122.197.208.339.235.143.024.29.027.433.01.573-.041 1.144-.091 1.715-.141.241-.015.482-.048.719-.097.125-.03.248-.07.372-.102.214-.054.433-.085.654-.094.064-.005.128.002.19.019.133.041.226.167.362.197.088.009.176-.003.258-.034.418-.087.844-.13 1.271-.13.187-.01.408-.045.493-.21.107-.206-.07-.436-.141-.657-.035-.141-.055-.285-.06-.43-.032-.36-.139-.708-.314-1.025-.146-.264-.34-.554-.243-.835.052-.087.085-.185.097-.285-.024-.453-1.082-.286-1.34-.346z"/>
        <path fill="#FBBEBE" fill-rule="nonzero" d="M107.173 103.024c-.61-.24-1.099-.672-1.372-1.214-.056-.116-.105-.237-.159-.355-.181-.39-.462-.736-.82-1.012-.077-.076-.189-.118-.304-.115-.112.03-.197.111-.224.213-.032.108-.04.22-.024.332.032.257.082.513.15.765l.167.677c.021.104.056.206.105.302.071.114.166.215.28.297.152.127.307.248.463.366.087.07.181.13.282.182.165.07.342.116.524.136.684.113 1.38.276 1.956.664 0 0 0-.453-.013-.498-.007-.131-.058-.258-.146-.363-.216-.208-.589-.27-.865-.377z"/>
        <path fill="#000" fill-rule="nonzero" d="M107.173 103.024c-.61-.24-1.099-.672-1.372-1.214-.056-.116-.105-.237-.159-.355-.181-.39-.462-.736-.82-1.012-.077-.076-.189-.118-.304-.115-.112.03-.197.111-.224.213-.032.108-.04.22-.024.332.032.257.082.513.15.765l.167.677c.021.104.056.206.105.302.071.114.166.215.28.297.152.127.307.248.463.366.087.07.181.13.282.182.165.07.342.116.524.136.684.113 1.38.276 1.956.664 0 0 0-.453-.013-.498-.007-.131-.058-.258-.146-.363-.216-.208-.589-.27-.865-.377z" opacity=".1"/>
        <circle cx="114.59" cy="95.902" r="1" fill="#2F2E41" fill-rule="nonzero"/>
        <path fill="#2F2E41" fill-rule="nonzero" d="M113.765 95.433c-.215-.051-.442-.017-.635.095-.093.086-.166.192-.216.31-.18.322-.322.667-.419 1.026-.071.307-.084.628-.179.932-.164.56-.586 1.035-.635 1.619-.021.261.02.569-.163.746-.045.04-.093.075-.144.106-.127.09-.235.205-.317.34-.055.12-.13.23-.224.322-.164.127-.434.114-.515.31-.08.196.127.423.079.636-.04.173-.225.254-.358.373-.15.166-.256.372-.306.595-.543.107-1.105-.04-1.536-.401.223.576.229 1.212.238 1.833.025.199-.025.4-.142.56.64.015 1.263.186 1.887.341.267.093.556.093.823 0 .143-.08.27-.186.378-.313.34-.36.696-.746.778-1.248.022-.282.026-.566.014-.849.033-.349.102-.693.206-1.027.18-.693.3-1.402.358-2.117.037-.442.402-.796.595-1.192.358-.746.734-1.52.762-2.355.025-.273-.064-.606-.329-.642z"/>
        <path fill="#000" fill-rule="nonzero" d="M113.765 95.433c-.215-.051-.442-.017-.635.095-.093.086-.166.192-.216.31-.18.322-.322.667-.419 1.026-.071.307-.084.628-.179.932-.164.56-.586 1.035-.635 1.619-.021.261.02.569-.163.746-.045.04-.093.075-.144.106-.127.09-.235.205-.317.34-.055.12-.13.23-.224.322-.164.127-.434.114-.515.31-.08.196.127.423.079.636-.04.173-.225.254-.358.373-.15.166-.256.372-.306.595-.543.107-1.105-.04-1.536-.401.223.576.229 1.212.238 1.833.025.199-.025.4-.142.56.64.015 1.263.186 1.887.341.267.093.556.093.823 0 .143-.08.27-.186.378-.313.34-.36.696-.746.778-1.248.022-.282.026-.566.014-.849.033-.349.102-.693.206-1.027.18-.693.3-1.402.358-2.117.037-.442.402-.796.595-1.192.358-.746.734-1.52.762-2.355.025-.273-.064-.606-.329-.642z" opacity=".1"/>
        <path fill="#2F2E41" fill-rule="nonzero" d="M112.063 109.055c-.694-.326-1.202-.932-1.763-1.452-1.072-.992-2.382-1.693-3.508-2.623-.746-.616-1.413-1.332-2.234-1.848-.723-.454-1.542-.737-2.393-.827-.098-.017-.198-.012-.293.014-.107.048-.201.12-.272.213-.364.405-.688.842-.966 1.308-1.427 2.387-3.454 4.395-5.134 6.616-.112.109-.12.283-.02.402l.341.66c.191.368.498.799.902.726.186-.053.352-.157.479-.3l1.534-1.447 1.608-1.515c.942-.89 1.9-1.797 2.515-2.931.48.82 1.332 1.357 1.917 2.109.222.285.402.6.6.902.32.485.681.94 1.042 1.394l1.846 2.321c.233.33.522.62.854.854.437.272.97.345 1.484.39.692.062 1.388.087 2.084.074.53-.009 1.083-.042 1.552-.275.47-.233.868-.712.843-1.233-.029-.273-.12-.536-.265-.77-.652-1.192-1.515-2.188-2.753-2.762z"/>
        <circle cx="114.59" cy="95.902" r="1" fill="#E8E8F0" fill-rule="nonzero"/>
        <path fill="#FBBEBE" fill-rule="nonzero" d="M115.037 96.595c.154.31.181.67.075 1-.106.325-.254.635-.44.92-.16.296-.353.572-.574.825 1.058.052 2.083-.366 3.016-.874.752-.4 1.502-.91 1.902-1.673-.24.058-.495.01-.7-.13-.202-.142-.383-.312-.538-.504l-.53-.6c-.124-.132-.234-.278-.327-.435-.116-.213-.165-.456-.14-.698-.211.223-.447.42-.703.588-.379.25-.793.43-1.176.677-.135.088-.435.23-.357.4.077.17.385.312.492.504z"/>
        <path fill="#000" fill-rule="nonzero" d="M115.037 96.595c.154.31.181.67.075 1-.106.325-.254.635-.44.92-.16.296-.353.572-.574.825 1.058.052 2.083-.366 3.016-.874.752-.4 1.502-.91 1.902-1.673-.24.058-.495.01-.7-.13-.202-.142-.383-.312-.538-.504l-.53-.6c-.124-.132-.234-.278-.327-.435-.116-.213-.165-.456-.14-.698-.211.223-.447.42-.703.588-.379.25-.793.43-1.176.677-.135.088-.435.23-.357.4.077.17.385.312.492.504z" opacity=".1"/>
        <path fill="#E8E8F0" fill-rule="nonzero" d="M114.654 95.514c-.184.277-.184.646 0 .922.024.034.12.245.166.247.039-.004.075-.024.101-.055.2-.224.388-.46.562-.708.175-.252.428-.429.714-.5.347-.058.681.138.985.326.131.07.245.17.333.294.064.123.102.26.111.4.087.844.12 1.693.1 2.542.016.612-.022 1.225-.113 1.829-.057.312-.141.616-.181.931-.03.278-.041.557-.035.836v1.168c-.007.214.007.429.043.64.069.25.149.498.24.741.082.29.137.585.167.885l.15 1.21c.048.382.083.798-.135 1.104-.096.14-.226.25-.332.388-.374.506-.25 1.24-.416 1.87-.123.46-.374.871-.72 1.177-.265.239-.607.428-.95.354-.46-.092-.737-.604-.864-1.087-.126-.484-.166-1.011-.443-1.417-.223-.334-.567-.543-.878-.782-.31-.239-.616-.545-.684-.949-.03-.177-.012-.354-.028-.531-.05-.46-.332-.853-.735-1.027-.236-.097-.528-.133-.664-.354.338-.226.584-.58.69-.99.104-.404.16-.82.167-1.239l.08-1.405c.035-.629.051-1.252.31-1.817.117-.251.261-.488.38-.738.161-.35.298-.712.41-1.084.187-.575.377-1.152.545-1.734.067-.283.167-.554.299-.81.154-.265.359-.584.625-.637z"/>
        <path fill="#2F2E41" fill-rule="nonzero" d="M111.199 105.233l.481.013.103-.582c.014-.116.048-.23.101-.34.08-.114.173-.223.277-.324.475-.536.44-1.248.557-1.899.156-.868.61-1.682 1.06-2.482l.935-1.668c.083-.137.15-.28.2-.428.04-.162.06-.328.057-.493 0-.257.105-1.195.112-1.453 0-.096-.261-.043-.316-.127-.117-.184-.278.316-.498.426-.207.127-.358.303-.43.504-.203.42-.326.863-.514 1.285-.165.432-.466.823-.874 1.135-.19.136-.412.242-.593.386-.583.46-.638 1.187-.658 1.834-.014.402-.108 4.213 0 4.213z"/>
        <path fill="#2F2E41" fill-rule="nonzero" d="M116.532 95.453c-.356.148-.563.556-.665.953-.101.396-.144.815-.34 1.168-.457.827-1.621 1.068-1.944 1.961-.082.302-.126.614-.13.927-.057.64-.26 1.259-.32 1.898-.032.498-.021.997.033 1.493l.408 5.048c.08.744.038 1.496-.123 2.225.419.062.846-.01 1.223-.21.384-.185.733-.43 1.1-.641.634-.371 1.332-.621 1.885-1.113.1-.08.187-.18.255-.29.089-.213.149-.437.178-.666.047-.179.107-.354.179-.523.205-.509.383-1.029.535-1.557.104-.35.185-.708.244-1.07.045-.287.068-.578.093-.868.028-.455.115-.903.258-1.334.354-1.029.554-2.107.594-3.198.012-.158.002-.317-.03-.471-.062-.188-.145-.367-.246-.534-.17-.332-.271-.697-.432-1.033-.357-.76-.997-1.336-1.665-1.82-.343-.236-.719-.492-1.09-.345z"/>
        <path fill="#FBBEBE" fill-rule="nonzero" d="M108.722 102.896c-.291-.148-.555-.341-.78-.573-.103-.116-.18-.246-.292-.36-.263-.272-.606-.46-.982-.541-.373-.08-.755-.115-1.138-.106-.255-.017-.512.013-.756.089-.248.078-.438.274-.502.52-.056.294.143.58.382.768.222.175.483.298.763.359.228.038.458.064.69.078 1.357.137 2.568.85 3.757 1.5 1.045.57 2.11 1.103 3.195 1.6.043-.314.061-.63.054-.947 0-.236-.018-.597-.25-.735-.269-.163-.717-.2-1.015-.297-.7-.22-1.383-.487-2.045-.797-.375-.175-.734-.36-1.08-.558z"/>
        <circle cx="114.59" cy="92.951" r="2.459" fill="#FBBEBE" fill-rule="nonzero"/>
        <path fill="#2F2E41" fill-rule="nonzero" d="M117.757 98.684c-.213.283-.388.59-.52.915-.333.645-.853 1.197-1.112 1.879-.275.708-.265 1.552-.797 2.11-.107.084-.187.194-.233.319-.003.077-.013.155-.028.23-.076.204-.428.213-.494.42-.018.06 0 .126-.032.188-.054.133-.239.152-.365.233-.26.167-.199.554-.398.794-.165.182-.42.267-.67.222-.244-.048-.479-.131-.697-.246-.077-.04-.162-.066-.25-.073-.103.002-.204.034-.288.092-.496.297-.73.886-.725 1.443.035.556.174 1.101.412 1.611.028.088.075.17.138.24.163.164.45.138.67.046.204-.115.423-.207.65-.274.415-.072.822.199 1.242.176.308-.044.597-.164.839-.35.427-.244.809-.551 1.132-.91.183-.228.319-.487.48-.73.206-.297.433-.582.678-.852l1.548-1.787c.155-.169.295-.35.416-.543.14-.26.249-.533.325-.815.166-.47.274-.958.321-1.452.008-.41-.03-.818-.114-1.22-.052-.399-.164-.789-.332-1.159-.345-.657-1.164-1.202-1.796-.507z"/>
        <path fill="#F86D70" fill-rule="nonzero" d="M122.95 95.09c.005-.837-.4-1.626-1.085-2.12-.021-1.513-1.149-2.79-2.665-3.016-.292-1.434-1.587-2.451-3.067-2.412-1.48.04-2.717 1.125-2.931 2.572-.975-.217-1.866.065-2.028.658-.174.62.522 1.346 1.553 1.621.322.09.659.124.993.098.485.703 1.247 1.171 2.1 1.29.252 1.143 1.138 2.047 2.288 2.332.155.372.397.703.706.966 0 .072-.012.146-.012.222-.03.72.34 1.398.967 1.767.627.368 1.407.368 2.034 0 .626-.37.997-1.047.967-1.767 0-.297-.065-.59-.19-.86.245-.409.373-.876.37-1.35z"/>
        <path fill="#000" fill-rule="nonzero" d="M110.854 89.895c.161-.589 1.038-.868 2.015-.654.234-1.458 1.5-2.537 2.996-2.557h.2c-.28-.085-.571-.127-.864-.127-1.497.02-2.762 1.1-2.996 2.558-.969-.215-1.854.065-2.015.653-.172.616.52 1.336 1.543 1.609.19.052.385.085.582.098-.971-.28-1.625-.978-1.46-1.58zM118.705 97.394c0-.078 0-.153.012-.229-.304-.268-.543-.606-.697-.986-1.133-.294-2.007-1.218-2.258-2.386-.84-.12-1.593-.6-2.07-1.318-.193.015-.386.01-.577-.016.48.661 1.198 1.098 1.995 1.213.249 1.169 1.124 2.093 2.258 2.384.154.38.392.719.697.988 0 .074-.012.15-.012.227-.018 1.121.851 2.047 1.947 2.073-.787-.31-1.302-1.088-1.295-1.95z" opacity=".1"/>
        <circle cx="115.138" cy="93.9" r="1" fill="#FBBEBE" fill-rule="nonzero" transform="rotate(-37.22 115.138 93.9)"/>
        <path fill="#F8765E" fill-rule="nonzero" d="M57.008 106.463l2.252-1.379c-.305-.541-.694-1.026-1.152-1.435l-4.246 1.375 3.327-2.037c-1.677-.955-3.713-.92-5.357.095-1.644 1.015-2.652 2.857-2.652 4.847 0 3.111 2.423 3.219 5.41 3.219s5.41-.108 5.41-3.219c.002-.788-.157-1.568-.465-2.288l-2.527.822z"/>
        <path fill="#000" fill-rule="nonzero" d="M58.213 109.592c-.258-.235-.546-.44-.858-.612-.438-.266-.894-.536-1.412-.626-.455-.079-.924-.011-1.387-.036-.805-.044-1.563-.36-2.125-.884-.331-.31-.591-.691-.99-.929-.444-.24-.97-.327-1.479-.246-.148.019-.294.046-.438.081-.228.575-.344 1.18-.344 1.792 0 2.915 2.605 3.016 5.817 3.016 1.56 0 2.974-.024 4.02-.382l-.182-.295c-.165-.316-.374-.611-.622-.88z" opacity=".1"/>
    </g>
</svg>
