<svg xmlns="http://www.w3.org/2000/svg" width="151" height="150" viewBox="0 0 151 150">
    <g fill="#FDE8E1" fill-rule="evenodd">
        <path d="M8 0h49.913c4.418 0 8 3.582 8 8v67.466c0 1.746-.572 3.445-1.628 4.836l-49.913 65.762c-2.67 3.52-7.69 4.207-11.209 1.536C1.17 146.087 0 143.73 0 141.227V8c0-4.418 3.582-8 8-8zM93.087 0H143c4.418 0 8 3.582 8 8v67.466c0 1.746-.572 3.445-1.628 4.836L99.46 146.064c-2.671 3.52-7.69 4.207-11.21 1.536-1.992-1.513-3.163-3.87-3.163-6.373V8c0-4.418 3.582-8 8-8z"/>
    </g>
</svg>
